<svg width="208" height="27" viewBox="0 0 208 27" fill="none" xmlns="http://www.w3.org/2000/svg">
<path d="M16.043 20.5823C13.8667 19.7739 11.6281 19.6496 9.57614 20.2092C8.14596 20.5823 6.77796 21.3285 5.53432 22.2612L4.66376 23.0074L4.41504 23.2561L4.97467 23.7535C5.03685 23.7535 5.03686 23.8157 5.09904 23.8779C5.22341 24.0023 5.34778 24.0645 5.53432 24.1888L5.9074 24.4375L6.28049 24.1266C6.34268 24.0645 6.46704 23.9401 6.5914 23.8779C7.71068 22.9452 8.95431 22.3234 10.2601 22.0125C11.939 21.5772 13.7423 21.6394 15.5456 22.3234C17.0379 22.883 20.0849 23.567 23.7536 22.0125L23.878 21.9503L24.0645 21.7637C24.0645 21.7016 24.1267 21.7015 24.1889 21.6394C24.4998 21.2663 24.8107 20.8932 25.0594 20.4579L26.303 18.5303L24.3132 19.6495C21.3907 21.2663 18.7169 21.5772 16.043 20.5823Z" fill="#2DD4BF"/>
<path d="M7.52364 13.8665C9.20255 13.4312 11.0058 13.4934 12.8091 14.1774C14.7989 14.9236 19.8978 15.9807 25.6186 10.8196L26.5513 9.88685L26.6135 9.82466L26.8622 9.57594L26.7378 9.26503C26.6756 9.0163 26.5513 8.7054 26.4269 8.39449L26.116 7.52393L25.4942 8.14574C25.432 8.27011 25.3076 8.33229 25.1833 8.45665C22.4473 11.2548 18.2189 14.1152 13.3687 12.3741C11.1924 11.5658 8.95382 11.4414 6.90182 12.001C4.91201 12.5607 3.17091 13.6178 1.55418 15.1101V15.0479L0.621456 16.0428C0.621456 16.105 0.559286 16.105 0.497104 16.1672L0.310547 16.3538L0.372732 16.6025C0.434914 16.9134 0.559274 17.2243 0.621456 17.5352L0.994551 18.5301L1.61637 17.7218C1.67855 17.5974 1.80291 17.5352 1.86509 17.4109C3.17091 16.2294 4.97419 14.5505 7.52364 13.8665Z" fill="#2DD4BF"/>
<path d="M1.49238 12.7472C2.92256 11.2548 4.53928 10.3221 6.28037 9.82462C7.95928 9.38935 9.76255 9.45153 11.5658 10.1355C17.1622 12.1875 22.0124 8.82971 24.1266 7.02644L24.9349 6.21808L25.2458 5.96934L24.9971 5.59626C24.8106 5.40972 24.6862 5.16099 24.4997 4.91226L24.1266 4.41479L23.6913 4.85008C23.6291 4.91226 23.5047 5.03662 23.4426 5.0988C20.8309 7.58607 16.7891 10.1355 12.1876 8.39445C10.0113 7.58608 7.77273 7.46172 5.72073 8.02135C4.41492 8.39444 3.17128 9.01626 1.92764 9.82462L0.621818 10.8817C0.497455 11.0061 0.435273 11.0683 0.310909 11.1926L0.186557 11.317V11.5035C0.124375 11.9388 0.124367 12.3741 0.0621856 12.7472L0 14.3017L1.0571 13.1824C1.18146 13.0581 1.30583 12.8715 1.49238 12.7472Z" fill="#2DD4BF"/>
<path d="M17.8466 24.8105L17.7222 25.1836L17.8466 24.8105C17.66 24.7483 17.5357 24.6861 17.3491 24.624C15.1728 23.8156 12.9342 23.6913 10.8822 24.2509C10.4469 24.3753 10.0117 24.4996 9.57639 24.6862L8.08401 25.3702L7.71094 25.5567L8.95457 25.992C9.32766 26.1163 9.70075 26.2407 10.0738 26.3651L10.2604 26.4273L10.4469 26.3651C10.6335 26.3029 10.82 26.1785 11.0066 26.1785C11.1309 26.1785 11.2553 26.1163 11.3797 26.0542C12.872 25.6811 14.4887 25.6811 16.2298 26.2407C16.4164 26.3029 16.5408 26.3651 16.7273 26.4273L17.0382 26.5516L17.2247 26.4894C17.66 26.3651 18.1575 26.2407 18.5306 26.0542L20.2717 25.4323L18.4684 24.9971C18.2818 24.9349 18.0331 24.8727 17.8466 24.8105Z" fill="#2DD4BF"/>
<path d="M27.3597 11.939L26.427 12.8717C26.3027 12.9961 26.1783 13.1204 26.0539 13.2448C23.5045 15.6699 19.4005 18.2815 14.799 16.5404C12.6227 15.7321 10.3841 15.6077 8.33213 16.1673C6.40449 16.727 4.66338 17.7219 3.10884 19.2142L2.30048 20.0848L2.05176 20.3957L2.30048 20.7688C2.48703 21.0175 2.6114 21.2041 2.73576 21.4528L3.10884 22.0124L3.54412 21.4528C3.6063 21.3906 3.73066 21.2662 3.79284 21.2041C5.2852 19.5873 6.90193 18.5924 8.76739 18.095C10.4463 17.6597 12.2496 17.7219 14.0528 18.4059C15.6074 18.9655 17.2241 19.1521 18.8408 18.9655C21.7012 18.6546 24.5616 17.0379 26.6758 15.2346C26.8001 15.1102 26.9245 15.0481 27.0488 14.9237L27.2354 14.7371V14.5506C27.2354 14.1775 27.2976 13.7422 27.2976 13.3692L27.3597 11.939Z" fill="#2DD4BF"/>
<path d="M3.73045 6.21814L3.54391 5.84504L3.73045 6.21814C4.10354 6.03159 4.53883 5.90722 4.91192 5.78286C6.59083 5.34758 8.3941 5.40976 10.1974 6.09376C11.3788 6.52904 12.5603 6.71558 13.8661 6.71558C16.4777 6.71558 19.0894 5.78286 21.5145 3.97959L22.4472 3.2334L22.7581 2.98467L22.1985 2.54939C22.0119 2.36285 21.7632 2.17631 21.5145 2.05195L21.1414 1.80322L20.8305 2.05195C20.7061 2.11413 20.6439 2.23849 20.5195 2.30067C17.2239 4.78794 13.9283 5.47195 10.8192 4.2905C8.58065 3.48213 6.34209 3.29559 4.10355 3.97959C3.917 4.04177 3.73046 4.10394 3.48173 4.16612L3.35738 4.22831L3.17082 4.41485C3.17082 4.47703 3.10865 4.47704 3.04647 4.53922C2.79774 4.91231 2.48682 5.22323 2.23809 5.59632L1.05664 7.39959L2.98428 6.40467C3.29519 6.40467 3.54391 6.28032 3.73045 6.21814Z" fill="#2DD4BF"/>
<path d="M8.82967 1.98981L9.01621 2.05199C9.82457 2.3629 11.0682 2.67381 12.6228 2.67381C14.2395 2.67381 15.794 2.30072 17.3486 1.6789L19.2762 0.74617L17.9704 0.310909C17.5973 0.186545 17.2242 0.0621818 16.7889 0H16.6024L16.4159 0.0621666C16.2293 0.124348 16.0428 0.248727 15.8562 0.310909C13.9908 0.994909 12.1253 1.11927 10.322 0.621818C10.1355 0.559636 9.94894 0.497443 9.7624 0.435261L9.57586 0.373076L9.3893 0.435261C9.01621 0.559625 8.64313 0.683996 8.27004 0.870542L6.83984 1.49236L8.33222 1.92762C8.45659 1.86544 8.64312 1.92762 8.82967 1.98981Z" fill="#2DD4BF"/>
<path d="M44.4674 20.7239C43.3661 20.7239 42.3394 20.5745 41.3874 20.2759C40.4541 19.9585 39.6328 19.4919 38.9234 18.8759C38.2328 18.2599 37.6821 17.4852 37.2714 16.5519C36.8794 15.6185 36.6834 14.5265 36.6834 13.2759C36.6834 12.0439 36.8794 10.9892 37.2714 10.1119C37.6821 9.21588 38.2141 8.48788 38.8674 7.92788C39.5208 7.34921 40.2674 6.92921 41.1074 6.66788C41.9474 6.38788 42.8061 6.24788 43.6834 6.24788C44.6728 6.24788 45.5688 6.39721 46.3714 6.69588C47.1928 6.99455 47.8928 7.40521 48.4714 7.92788C49.0688 8.45055 49.5261 9.07588 49.8434 9.80388C50.1794 10.5319 50.3474 11.3252 50.3474 12.1839C50.3474 12.8185 50.1701 13.3039 49.8154 13.6399C49.4608 13.9759 48.9661 14.1905 48.3314 14.2839L41.4154 15.3199C41.6208 15.9359 42.0408 16.4025 42.6754 16.7199C43.3101 17.0185 44.0381 17.1679 44.8594 17.1679C45.6248 17.1679 46.3434 17.0745 47.0154 16.8879C47.7061 16.6825 48.2661 16.4492 48.6954 16.1879C48.9941 16.3745 49.2461 16.6359 49.4514 16.9719C49.6568 17.3079 49.7594 17.6625 49.7594 18.0359C49.7594 18.8759 49.3674 19.5012 48.5834 19.9119C47.9861 20.2292 47.3141 20.4439 46.5674 20.5559C45.8208 20.6679 45.1208 20.7239 44.4674 20.7239ZM43.6834 9.71988C43.2354 9.71988 42.8434 9.79455 42.5074 9.94388C42.1901 10.0932 41.9288 10.2892 41.7234 10.5319C41.5181 10.7559 41.3594 11.0172 41.2474 11.3159C41.1541 11.5959 41.0981 11.8852 41.0794 12.1839L45.8674 11.3999C45.8114 11.0265 45.6061 10.6532 45.2514 10.2799C44.8968 9.90655 44.3741 9.71988 43.6834 9.71988ZM60.3106 9.99988C59.844 9.99988 59.396 10.0745 58.9666 10.2239C58.556 10.3732 58.192 10.5972 57.8746 10.8959C57.576 11.1759 57.3333 11.5305 57.1466 11.9599C56.96 12.3892 56.8666 12.8932 56.8666 13.4719C56.8666 14.6292 57.1933 15.4972 57.8466 16.0759C58.5186 16.6545 59.3306 16.9439 60.2826 16.9439C60.8426 16.9439 61.328 16.8785 61.7386 16.7479C62.1493 16.6172 62.5133 16.4772 62.8306 16.3279C63.204 16.5892 63.484 16.8785 63.6706 17.1959C63.8573 17.4945 63.9506 17.8585 63.9506 18.2879C63.9506 19.0532 63.5866 19.6505 62.8586 20.0799C62.1306 20.4905 61.1226 20.6959 59.8346 20.6959C58.6586 20.6959 57.5946 20.5279 56.6426 20.1919C55.6906 19.8372 54.8693 19.3519 54.1786 18.7359C53.5066 18.1012 52.984 17.3452 52.6106 16.4679C52.2373 15.5905 52.0506 14.6199 52.0506 13.5559C52.0506 12.3239 52.2466 11.2505 52.6386 10.3359C53.0493 9.40254 53.6 8.63721 54.2906 8.03988C54.9813 7.44255 55.7746 6.99455 56.6706 6.69588C57.5853 6.39721 58.5466 6.24788 59.5546 6.24788C60.8986 6.24788 61.9346 6.49054 62.6626 6.97588C63.3906 7.46121 63.7546 8.08654 63.7546 8.85188C63.7546 9.20654 63.6706 9.54254 63.5026 9.85988C63.3346 10.1585 63.1386 10.4199 62.9146 10.6439C62.5973 10.4945 62.2146 10.3545 61.7666 10.2239C61.3186 10.0745 60.8333 9.99988 60.3106 9.99988ZM80.0117 13.4719C80.0117 14.6292 79.8343 15.6652 79.4797 16.5799C79.125 17.4759 78.621 18.2319 77.9677 18.8479C77.333 19.4639 76.5677 19.9305 75.6717 20.2479C74.7757 20.5652 73.777 20.7239 72.6757 20.7239C71.5743 20.7239 70.5757 20.5559 69.6797 20.2199C68.7837 19.8839 68.009 19.4079 67.3557 18.7919C66.721 18.1572 66.2263 17.3919 65.8717 16.4959C65.517 15.5999 65.3397 14.5919 65.3397 13.4719C65.3397 12.3705 65.517 11.3719 65.8717 10.4759C66.2263 9.57988 66.721 8.82388 67.3557 8.20788C68.009 7.57321 68.7837 7.08788 69.6797 6.75188C70.5757 6.41588 71.5743 6.24788 72.6757 6.24788C73.777 6.24788 74.7757 6.42521 75.6717 6.77988C76.5677 7.11588 77.333 7.60121 77.9677 8.23588C78.621 8.85188 79.125 9.60788 79.4797 10.5039C79.8343 11.3999 80.0117 12.3892 80.0117 13.4719ZM70.2117 13.4719C70.2117 14.6105 70.4263 15.4879 70.8557 16.1039C71.3037 16.7012 71.9197 16.9999 72.7037 16.9999C73.4877 16.9999 74.085 16.6919 74.4957 16.0759C74.925 15.4599 75.1397 14.5919 75.1397 13.4719C75.1397 12.3519 74.925 11.4932 74.4957 10.8959C74.0663 10.2799 73.4597 9.97188 72.6757 9.97188C71.8917 9.97188 71.285 10.2799 70.8557 10.8959C70.4263 11.4932 70.2117 12.3519 70.2117 13.4719ZM90.9579 11.6519C90.9579 11.0732 90.7899 10.6532 90.4539 10.3919C90.1366 10.1119 89.6979 9.97188 89.1379 9.97188C88.7646 9.97188 88.3913 10.0185 88.0179 10.1119C87.6633 10.2052 87.3553 10.3452 87.0939 10.5319V20.2479C86.9073 20.3039 86.6086 20.3599 86.1979 20.4159C85.8059 20.4719 85.3953 20.4999 84.9659 20.4999C84.5553 20.4999 84.1819 20.4719 83.8459 20.4159C83.5286 20.3599 83.2579 20.2479 83.0339 20.0799C82.8099 19.9119 82.6326 19.6879 82.5019 19.4079C82.3899 19.1092 82.3339 18.7265 82.3339 18.2599V9.85988C82.3339 9.35588 82.4366 8.94521 82.6419 8.62788C82.8659 8.31054 83.1646 8.02121 83.5379 7.75988C84.1726 7.31188 84.9659 6.94788 85.9179 6.66788C86.8886 6.38788 87.9619 6.24788 89.1379 6.24788C91.2473 6.24788 92.8713 6.71454 94.0099 7.64788C95.1486 8.56255 95.7179 9.84121 95.7179 11.4839V20.2479C95.5313 20.3039 95.2326 20.3599 94.8219 20.4159C94.4299 20.4719 94.0193 20.4999 93.5899 20.4999C93.1793 20.4999 92.8059 20.4719 92.4699 20.4159C92.1526 20.3599 91.8819 20.2479 91.6579 20.0799C91.4339 19.9119 91.2566 19.6879 91.1259 19.4079C91.0139 19.1092 90.9579 18.7265 90.9579 18.2599V11.6519ZM112.742 13.4719C112.742 14.6292 112.565 15.6652 112.21 16.5799C111.855 17.4759 111.351 18.2319 110.698 18.8479C110.063 19.4639 109.298 19.9305 108.402 20.2479C107.506 20.5652 106.507 20.7239 105.406 20.7239C104.305 20.7239 103.306 20.5559 102.41 20.2199C101.514 19.8839 100.739 19.4079 100.086 18.7919C99.4515 18.1572 98.9568 17.3919 98.6021 16.4959C98.2475 15.5999 98.0701 14.5919 98.0701 13.4719C98.0701 12.3705 98.2475 11.3719 98.6021 10.4759C98.9568 9.57988 99.4515 8.82388 100.086 8.20788C100.739 7.57321 101.514 7.08788 102.41 6.75188C103.306 6.41588 104.305 6.24788 105.406 6.24788C106.507 6.24788 107.506 6.42521 108.402 6.77988C109.298 7.11588 110.063 7.60121 110.698 8.23588C111.351 8.85188 111.855 9.60788 112.21 10.5039C112.565 11.3999 112.742 12.3892 112.742 13.4719ZM102.942 13.4719C102.942 14.6105 103.157 15.4879 103.586 16.1039C104.034 16.7012 104.65 16.9999 105.434 16.9999C106.218 16.9999 106.815 16.6919 107.226 16.0759C107.655 15.4599 107.87 14.5919 107.87 13.4719C107.87 12.3519 107.655 11.4932 107.226 10.8959C106.797 10.2799 106.19 9.97188 105.406 9.97188C104.622 9.97188 104.015 10.2799 103.586 10.8959C103.157 11.4932 102.942 12.3519 102.942 13.4719ZM121.588 6.24788C122.354 6.24788 123.1 6.35988 123.828 6.58388C124.575 6.78921 125.219 7.10655 125.76 7.53588C126.32 7.16255 126.946 6.85454 127.636 6.61188C128.346 6.36921 129.195 6.24788 130.184 6.24788C130.894 6.24788 131.584 6.34121 132.256 6.52788C132.947 6.71454 133.554 7.01321 134.076 7.42388C134.618 7.81588 135.047 8.34788 135.364 9.01988C135.682 9.67321 135.84 10.4759 135.84 11.4279V20.2479C135.654 20.3039 135.355 20.3599 134.944 20.4159C134.552 20.4719 134.142 20.4999 133.712 20.4999C133.302 20.4999 132.928 20.4719 132.592 20.4159C132.275 20.3599 132.004 20.2479 131.78 20.0799C131.556 19.9119 131.379 19.6879 131.248 19.4079C131.136 19.1092 131.08 18.7265 131.08 18.2599V11.5679C131.08 11.0079 130.922 10.6065 130.604 10.3639C130.287 10.1025 129.858 9.97188 129.316 9.97188C129.055 9.97188 128.775 10.0372 128.476 10.1679C128.178 10.2799 127.954 10.4012 127.804 10.5319C127.823 10.6065 127.832 10.6812 127.832 10.7559C127.832 10.8119 127.832 10.8679 127.832 10.9239V20.2479C127.627 20.3039 127.319 20.3599 126.908 20.4159C126.516 20.4719 126.115 20.4999 125.704 20.4999C125.294 20.4999 124.92 20.4719 124.584 20.4159C124.267 20.3599 123.996 20.2479 123.772 20.0799C123.548 19.9119 123.371 19.6879 123.24 19.4079C123.128 19.1092 123.072 18.7265 123.072 18.2599V11.5679C123.072 11.0079 122.895 10.6065 122.54 10.3639C122.204 10.1025 121.794 9.97188 121.308 9.97188C120.972 9.97188 120.683 10.0279 120.44 10.1399C120.198 10.2332 119.992 10.3265 119.824 10.4199V20.2479C119.638 20.3039 119.339 20.3599 118.928 20.4159C118.536 20.4719 118.126 20.4999 117.696 20.4999C117.286 20.4999 116.912 20.4719 116.576 20.4159C116.259 20.3599 115.988 20.2479 115.764 20.0799C115.54 19.9119 115.363 19.6879 115.232 19.4079C115.12 19.1092 115.064 18.7265 115.064 18.2599V9.80388C115.064 9.29988 115.167 8.89854 115.372 8.59988C115.596 8.30121 115.895 8.02121 116.268 7.75988C116.903 7.31188 117.687 6.94788 118.62 6.66788C119.572 6.38788 120.562 6.24788 121.588 6.24788ZM138.632 2.88788C138.632 2.17854 138.865 1.58121 139.332 1.09588C139.817 0.610545 140.452 0.367878 141.236 0.367878C142.02 0.367878 142.645 0.610545 143.112 1.09588C143.597 1.58121 143.84 2.17854 143.84 2.88788C143.84 3.59721 143.597 4.19455 143.112 4.67988C142.645 5.16521 142.02 5.40788 141.236 5.40788C140.452 5.40788 139.817 5.16521 139.332 4.67988C138.865 4.19455 138.632 3.59721 138.632 2.88788ZM143.616 20.2479C143.411 20.2852 143.103 20.3319 142.692 20.3879C142.3 20.4625 141.899 20.4999 141.488 20.4999C141.077 20.4999 140.704 20.4719 140.368 20.4159C140.051 20.3599 139.78 20.2479 139.556 20.0799C139.332 19.9119 139.155 19.6879 139.024 19.4079C138.912 19.1092 138.856 18.7265 138.856 18.2599V6.86388C139.061 6.82654 139.36 6.77988 139.752 6.72388C140.163 6.64921 140.573 6.61188 140.984 6.61188C141.395 6.61188 141.759 6.63988 142.076 6.69588C142.412 6.75188 142.692 6.86388 142.916 7.03188C143.14 7.19988 143.308 7.43321 143.42 7.73188C143.551 8.01188 143.616 8.38521 143.616 8.85188V20.2479ZM155.27 11.6519C155.27 11.0732 155.102 10.6532 154.766 10.3919C154.449 10.1119 154.01 9.97188 153.45 9.97188C153.077 9.97188 152.704 10.0185 152.33 10.1119C151.976 10.2052 151.668 10.3452 151.406 10.5319V20.2479C151.22 20.3039 150.921 20.3599 150.51 20.4159C150.118 20.4719 149.708 20.4999 149.278 20.4999C148.868 20.4999 148.494 20.4719 148.158 20.4159C147.841 20.3599 147.57 20.2479 147.346 20.0799C147.122 19.9119 146.945 19.6879 146.814 19.4079C146.702 19.1092 146.646 18.7265 146.646 18.2599V9.85988C146.646 9.35588 146.749 8.94521 146.954 8.62788C147.178 8.31054 147.477 8.02121 147.85 7.75988C148.485 7.31188 149.278 6.94788 150.23 6.66788C151.201 6.38788 152.274 6.24788 153.45 6.24788C155.56 6.24788 157.184 6.71454 158.322 7.64788C159.461 8.56255 160.03 9.84121 160.03 11.4839V20.2479C159.844 20.3039 159.545 20.3599 159.134 20.4159C158.742 20.4719 158.332 20.4999 157.902 20.4999C157.492 20.4999 157.118 20.4719 156.782 20.4159C156.465 20.3599 156.194 20.2479 155.97 20.0799C155.746 19.9119 155.569 19.6879 155.438 19.4079C155.326 19.1092 155.27 18.7265 155.27 18.2599V11.6519ZM176.411 20.2479C176.224 20.3039 175.925 20.3599 175.515 20.4159C175.123 20.4719 174.712 20.4999 174.283 20.4999C173.872 20.4999 173.499 20.4719 173.163 20.4159C172.845 20.3599 172.575 20.2479 172.351 20.0799C172.127 19.9119 171.949 19.6879 171.819 19.4079C171.707 19.1092 171.651 18.7265 171.651 18.2599V12.0439C171.651 11.2785 171.455 10.7465 171.063 10.4479C170.689 10.1305 170.223 9.97188 169.663 9.97188C169.289 9.97188 168.935 10.0185 168.599 10.1119C168.263 10.2052 167.992 10.3172 167.787 10.4479V20.2479C167.6 20.3039 167.301 20.3599 166.891 20.4159C166.499 20.4719 166.088 20.4999 165.659 20.4999C165.248 20.4999 164.875 20.4719 164.539 20.4159C164.221 20.3599 163.951 20.2479 163.727 20.0799C163.503 19.9119 163.325 19.6879 163.195 19.4079C163.083 19.1092 163.027 18.7265 163.027 18.2599V2.01988C163.232 1.98254 163.531 1.93588 163.923 1.87988C164.333 1.80521 164.744 1.76788 165.155 1.76788C165.565 1.76788 165.929 1.79588 166.247 1.85188C166.583 1.90788 166.863 2.01988 167.087 2.18788C167.311 2.35588 167.479 2.58921 167.591 2.88788C167.721 3.16788 167.787 3.54121 167.787 4.00788V6.75188C168.029 6.65854 168.393 6.55588 168.879 6.44388C169.383 6.31321 169.933 6.24788 170.531 6.24788C172.379 6.24788 173.816 6.71454 174.843 7.64788C175.888 8.56255 176.411 9.93455 176.411 11.7639V20.2479ZM185.174 17.2519C185.491 17.2519 185.836 17.2239 186.21 17.1679C186.602 17.0932 186.891 16.9999 187.078 16.8879V14.6479L185.062 14.8159C184.539 14.8532 184.11 14.9652 183.774 15.1519C183.438 15.3385 183.27 15.6185 183.27 15.9919C183.27 16.3652 183.41 16.6732 183.69 16.9159C183.988 17.1399 184.483 17.2519 185.174 17.2519ZM184.95 6.24788C185.958 6.24788 186.872 6.35054 187.694 6.55588C188.534 6.76121 189.243 7.07854 189.822 7.50788C190.419 7.91855 190.876 8.45055 191.194 9.10388C191.511 9.73855 191.67 10.4945 191.67 11.3719V17.6439C191.67 18.1292 191.53 18.5305 191.25 18.8479C190.988 19.1465 190.671 19.4079 190.298 19.6319C189.084 20.3599 187.376 20.7239 185.174 20.7239C184.184 20.7239 183.288 20.6305 182.486 20.4439C181.702 20.2572 181.02 19.9772 180.442 19.6039C179.882 19.2305 179.443 18.7545 179.126 18.1759C178.827 17.5972 178.678 16.9252 178.678 16.1599C178.678 14.8719 179.06 13.8825 179.826 13.1919C180.591 12.5012 181.776 12.0719 183.382 11.9039L187.05 11.5119V11.3159C187.05 10.7745 186.807 10.3919 186.322 10.1679C185.855 9.92521 185.174 9.80388 184.278 9.80388C183.568 9.80388 182.878 9.87855 182.206 10.0279C181.534 10.1772 180.927 10.3639 180.386 10.5879C180.143 10.4199 179.938 10.1679 179.77 9.83188C179.602 9.47721 179.518 9.11321 179.518 8.73988C179.518 8.25454 179.63 7.87188 179.854 7.59188C180.096 7.29321 180.46 7.04121 180.946 6.83588C181.487 6.63054 182.122 6.48121 182.85 6.38788C183.596 6.29454 184.296 6.24788 184.95 6.24788ZM206.06 16.2159C206.06 17.6345 205.528 18.7452 204.464 19.5479C203.4 20.3505 201.832 20.7519 199.76 20.7519C198.976 20.7519 198.248 20.6959 197.576 20.5839C196.904 20.4719 196.325 20.3039 195.84 20.0799C195.373 19.8372 195 19.5385 194.72 19.1839C194.459 18.8292 194.328 18.4092 194.328 17.9239C194.328 17.4759 194.421 17.1025 194.608 16.8039C194.795 16.4865 195.019 16.2252 195.28 16.0199C195.821 16.3185 196.437 16.5892 197.128 16.8319C197.837 17.0559 198.649 17.1679 199.564 17.1679C200.143 17.1679 200.581 17.0839 200.88 16.9159C201.197 16.7479 201.356 16.5239 201.356 16.2439C201.356 15.9825 201.244 15.7772 201.02 15.6279C200.796 15.4785 200.423 15.3572 199.9 15.2639L199.06 15.0959C197.436 14.7785 196.223 14.2839 195.42 13.6119C194.636 12.9212 194.244 11.9412 194.244 10.6719C194.244 9.98121 194.393 9.35588 194.692 8.79588C194.991 8.23588 195.411 7.76921 195.952 7.39588C196.493 7.02255 197.137 6.73321 197.884 6.52788C198.649 6.32254 199.489 6.21988 200.404 6.21988C201.095 6.21988 201.739 6.27588 202.336 6.38788C202.952 6.48121 203.484 6.63054 203.932 6.83588C204.38 7.04121 204.735 7.31188 204.996 7.64788C205.257 7.96521 205.388 8.34788 205.388 8.79588C205.388 9.22521 205.304 9.59855 205.136 9.91588C204.987 10.2145 204.791 10.4665 204.548 10.6719C204.399 10.5785 204.175 10.4852 203.876 10.3919C203.577 10.2799 203.251 10.1865 202.896 10.1119C202.541 10.0185 202.177 9.94388 201.804 9.88788C201.449 9.83188 201.123 9.80388 200.824 9.80388C200.208 9.80388 199.732 9.87855 199.396 10.0279C199.06 10.1585 198.892 10.3732 198.892 10.6719C198.892 10.8772 198.985 11.0452 199.172 11.1759C199.359 11.3065 199.713 11.4279 200.236 11.5399L201.104 11.7359C202.896 12.1465 204.165 12.7159 204.912 13.4439C205.677 14.1532 206.06 15.0772 206.06 16.2159Z" fill="white"/>
</svg>
