<svg width="24" height="24" viewBox="0 0 24 24" fill="none" xmlns="http://www.w3.org/2000/svg">
<path d="M13.2595 18.3478H6.42219C4.53446 18.3478 3.36035 17.0159 3.36035 15.1309V8.02841C3.36035 6.14349 4.53446 4.81152 6.42124 4.81152H17.5795C19.4606 4.81152 20.6404 6.14349 20.6404 8.02841V9.94693" stroke="#F87171" stroke-width="1.5" stroke-linecap="round" stroke-linejoin="round"/>
<path d="M6.44434 8.17139H7.79124" stroke="#F87171" stroke-width="1.5" stroke-linecap="round" stroke-linejoin="round"/>
<path fill-rule="evenodd" clip-rule="evenodd" d="M9.80469 11.5802C9.80469 10.3669 10.7882 9.38428 12.0006 9.38428C13.2139 9.38428 14.1976 10.3669 14.1976 11.5802C14.1976 12.7935 13.2139 13.7762 12.0006 13.7762C10.7882 13.7762 9.80469 12.7935 9.80469 11.5802Z" stroke="#F87171" stroke-width="1.5" stroke-linecap="round" stroke-linejoin="round"/>
<path d="M16.5381 16.2974L18.5892 18.3485L20.6395 16.2974" stroke="#F87171" stroke-width="1.5" stroke-linecap="round" stroke-linejoin="round"/>
<path d="M18.5889 13.5V18.3477" stroke="#F87171" stroke-width="1.5" stroke-linecap="round" stroke-linejoin="round"/>
</svg>
