<svg width="162" height="210" viewBox="0 0 162 210" fill="none" xmlns="http://www.w3.org/2000/svg">
<path d="M44.2108 77.5215C37.5077 74.2327 30.5789 71.4255 23.4768 69.1215C13.2428 65.9715 1.16782 68.8555 0.901824 72.2645C0.635824 75.6735 2.45583 74.1125 4.84283 77.8085C7.22983 81.5045 6.15183 90.1425 9.56782 98.0175C12.9838 105.893 23.2108 109.827 23.2108 109.827L44.2108 77.5215Z" fill="#fda4af" stroke="#09090B" stroke-linecap="round" stroke-linejoin="round"/>
<path opacity="0.3" d="M37.3862 85.1374C37.3862 85.1374 21.6362 75.1624 12.4522 71.7464C3.26816 68.3304 2.74316 73.3214 2.74316 73.3214C4.25409 73.876 5.55072 74.8946 6.44727 76.2313C7.34383 77.5679 7.7943 79.1541 7.73416 80.7624C7.73416 86.6564 10.6812 98.8644 17.8422 101.384C25.0032 103.904 37.3862 85.1374 37.3862 85.1374Z" fill="black"/>
<path d="M149.768 96.283C153.884 94.7193 155.86 89.8686 154.181 85.4486C152.502 81.0287 147.804 78.7132 143.688 80.2769C139.571 81.8405 137.595 86.6912 139.274 91.1112C140.953 95.5311 145.652 97.8466 149.768 96.283Z" fill="#fda4af" stroke="#09090B" stroke-linecap="round" stroke-linejoin="round"/>
<path d="M36.917 179.883L45.751 206.385C45.9906 207.103 46.4502 207.727 47.0646 208.169C47.679 208.612 48.417 208.849 49.174 208.849H62.943C63.6474 208.85 64.3366 208.644 64.9252 208.257C65.5138 207.87 65.9758 207.319 66.254 206.672L72.414 192.378" fill="#fda4af"/>
<mask id="mask0_338_57" style="mask-type:luminance" maskUnits="userSpaceOnUse" x="36" y="179" width="37" height="30">
<path d="M36.917 179.883L45.751 206.385C45.9906 207.103 46.4502 207.727 47.0646 208.169C47.679 208.612 48.417 208.849 49.174 208.849H62.943C63.6474 208.85 64.3366 208.644 64.9252 208.257C65.5138 207.87 65.9758 207.319 66.254 206.672L72.414 192.378" fill="white"/>
</mask>
<g mask="url(#mask0_338_57)">
<path opacity="0.3" d="M41.3477 179.883L48.6557 206.385C48.7939 207.05 49.1469 207.651 49.6604 208.097C50.1739 208.542 50.8194 208.806 51.4977 208.849H62.9147C63.5417 208.816 64.1431 208.589 64.6349 208.199C65.1268 207.809 65.4847 207.275 65.6587 206.672L70.7687 192.378" fill="black"/>
</g>
<path d="M36.917 179.883L45.751 206.385C45.9906 207.103 46.4502 207.727 47.0646 208.169C47.679 208.612 48.417 208.849 49.174 208.849H62.943C63.6474 208.85 64.3366 208.644 64.9252 208.257C65.5138 207.87 65.9758 207.319 66.254 206.672L72.414 192.378" stroke="#09090B" stroke-linecap="round" stroke-linejoin="round"/>
<path d="M103.361 179.883L94.5338 206.385C94.2942 207.103 93.8346 207.727 93.2202 208.169C92.6058 208.612 91.8678 208.849 91.1108 208.849H77.3558C76.6514 208.85 75.9621 208.644 75.3736 208.257C74.785 207.87 74.323 207.319 74.0448 206.672L67.8848 192.378" fill="#fda4af"/>
<path d="M103.361 179.883L94.5338 206.385C94.2942 207.103 93.8346 207.727 93.2202 208.169C92.6058 208.612 91.8678 208.849 91.1108 208.849H77.3558C76.6514 208.85 75.9621 208.644 75.3736 208.257C74.785 207.87 74.323 207.319 74.0448 206.672L67.8848 192.378" stroke="#09090B" stroke-linecap="round" stroke-linejoin="round"/>
<path d="M132.614 179.883L123.78 206.385C123.541 207.103 123.081 207.727 122.467 208.169C121.852 208.612 121.114 208.849 120.357 208.849H106.588C105.884 208.85 105.195 208.644 104.606 208.257C104.017 207.87 103.555 207.319 103.277 206.672L97.1172 192.378" fill="#fda4af"/>
<mask id="mask1_338_57" style="mask-type:luminance" maskUnits="userSpaceOnUse" x="97" y="179" width="36" height="30">
<path d="M132.614 179.883L123.78 206.385C123.541 207.103 123.081 207.727 122.467 208.169C121.852 208.612 121.114 208.849 120.357 208.849H106.588C105.884 208.85 105.195 208.644 104.606 208.257C104.017 207.87 103.555 207.319 103.277 206.672L97.1172 192.378" fill="white"/>
</mask>
<g mask="url(#mask1_338_57)">
<path opacity="0.3" d="M126.356 179.883L120.315 206.385C119.979 207.855 119.041 208.849 117.977 208.849H108.562C107.582 208.849 106.693 207.995 106.301 206.672L100.449 192.672" fill="black"/>
</g>
<path d="M132.614 179.883L123.78 206.385C123.541 207.103 123.081 207.727 122.467 208.169C121.852 208.612 121.114 208.849 120.357 208.849H106.588C105.884 208.85 105.195 208.644 104.606 208.257C104.017 207.87 103.555 207.319 103.277 206.672L97.1172 192.378" stroke="#09090B" stroke-linecap="round" stroke-linejoin="round"/>
<path d="M85.4055 197.32C127.224 197.32 161.125 166.575 161.125 128.65C161.125 90.7241 127.224 59.9795 85.4055 59.9795C43.5871 59.9795 9.68652 90.7241 9.68652 128.65C9.68652 166.575 43.5871 197.32 85.4055 197.32Z" fill="#fda4af"/>
<mask id="mask2_338_57" style="mask-type:luminance" maskUnits="userSpaceOnUse" x="9" y="59" width="153" height="139">
<path d="M85.4055 197.32C127.224 197.32 161.125 166.575 161.125 128.65C161.125 90.7241 127.224 59.9795 85.4055 59.9795C43.5871 59.9795 9.68652 90.7241 9.68652 128.65C9.68652 166.575 43.5871 197.32 85.4055 197.32Z" fill="white"/>
</mask>
<g mask="url(#mask2_338_57)">
<path opacity="0.3" d="M137.556 81.7285C141.996 90.5343 144.31 100.259 144.311 110.121C144.311 148.047 110.41 178.79 68.592 178.79C53.03 178.869 37.7767 174.45 24.667 166.064C37.869 183.781 60.22 195.464 85.567 195.464C126.167 195.464 159.067 165.637 159.067 128.838C159.025 110.422 150.807 93.7825 137.556 81.7285Z" fill="black"/>
</g>
<path d="M85.4055 197.32C127.224 197.32 161.125 166.575 161.125 128.65C161.125 90.7241 127.224 59.9795 85.4055 59.9795C43.5871 59.9795 9.68652 90.7241 9.68652 128.65C9.68652 166.575 43.5871 197.32 85.4055 197.32Z" stroke="#09090B" stroke-linecap="round" stroke-linejoin="round"/>
<path d="M154.755 134.81C153.103 148.642 146.726 161.193 137.122 171.105L154.755 134.81Z" fill="#fda4af"/>
<path d="M154.755 134.81C153.103 148.642 146.726 161.193 137.122 171.105" stroke="#fda4af" stroke-width="2" stroke-linecap="round" stroke-linejoin="round"/>
<path d="M153.502 113.509C154.619 118.141 155.183 122.89 155.182 127.656L153.502 113.509Z" fill="#fda4af"/>
<path d="M153.502 113.509C154.619 118.141 155.183 122.89 155.182 127.656" stroke="#fda4af" stroke-width="2" stroke-linecap="round" stroke-linejoin="round"/>
<path d="M66.6318 64.0793C72.2149 62.7437 77.93 62.0726 83.6636 62.0794C87.3343 62.0787 91.0002 62.3529 94.6318 62.8999" stroke="black" stroke-width="2" stroke-linecap="round" stroke-linejoin="round"/>
<path d="M100.259 112.199C100.259 112.199 107.609 107.208 107.875 98.0244C108.141 88.8404 96.0595 75.4564 86.3505 69.9404C76.6415 64.4244 69.5505 65.4814 69.2915 69.4154C69.0325 73.3494 65.6165 77.8154 64.3075 85.4244C62.9985 93.0334 62.4665 104.324 72.7075 107.999" fill="#fda4af"/>
<path d="M100.259 112.199C100.259 112.199 107.609 107.208 107.875 98.0244C108.141 88.8404 96.0595 75.4564 86.3505 69.9404C76.6415 64.4244 69.5505 65.4814 69.2915 69.4154C69.0325 73.3494 65.6165 77.8154 64.3075 85.4244C62.9985 93.0334 62.4665 104.324 72.7075 107.999" stroke="#09090B" stroke-linecap="round" stroke-linejoin="round"/>
<path opacity="0.3" d="M84.4468 109.252L85.9518 109.476C92.4058 110.407 94.6738 106.193 94.4848 99.8655C94.2258 90.9405 82.4168 72.0405 77.4258 69.4155C72.4348 66.7905 70.8668 70.4655 70.8668 70.4655C70.8668 70.4655 71.5668 70.9345 69.1098 79.0895C67.9758 82.8555 63.7548 95.9875 67.9338 101.811C71.6298 106.956 78.4968 108.363 84.4468 109.252Z" fill="black"/>
<path opacity="0.3" d="M105.356 100.208H105.258C105.166 100.196 105.078 100.166 104.998 100.12C104.918 100.074 104.848 100.012 104.792 99.9383C104.736 99.8648 104.695 99.7809 104.672 99.6915C104.648 99.6021 104.643 99.5089 104.656 99.4174C104.732 98.8791 104.776 98.3369 104.789 97.7934C104.929 92.8934 100.932 85.8584 94.3588 79.3694C94.2931 79.3046 94.2408 79.2275 94.2048 79.1425C94.1689 79.0574 94.1501 78.9662 94.1494 78.8739C94.1488 78.7816 94.1663 78.69 94.201 78.6045C94.2358 78.519 94.287 78.4411 94.3518 78.3754C94.4166 78.3097 94.4937 78.2574 94.5787 78.2214C94.6638 78.1855 94.755 78.1667 94.8473 78.166C94.9396 78.1654 95.0312 78.1829 95.1167 78.2176C95.2022 78.2524 95.2801 78.3036 95.3458 78.3684C102.29 85.2284 106.343 92.5014 106.189 97.8284C106.174 98.4231 106.127 99.0167 106.049 99.6064C106.025 99.7734 105.942 99.9263 105.815 100.037C105.687 100.147 105.524 100.208 105.356 100.208Z" fill="black"/>
<path opacity="0.3" d="M101.59 108.651C101.458 108.651 101.328 108.614 101.216 108.543C101.103 108.473 101.013 108.372 100.956 108.253C100.899 108.133 100.877 108 100.893 107.868C100.908 107.737 100.961 107.612 101.044 107.51C102.198 106.096 103.119 104.508 103.774 102.806C103.84 102.632 103.972 102.492 104.141 102.416C104.311 102.339 104.503 102.334 104.677 102.4C104.851 102.465 104.991 102.598 105.067 102.767C105.143 102.936 105.149 103.129 105.083 103.303C104.376 105.146 103.379 106.864 102.129 108.392C102.064 108.472 101.982 108.537 101.889 108.582C101.795 108.626 101.693 108.65 101.59 108.651Z" fill="black"/>
<path opacity="0.3" d="M50.6142 141.936C52.6845 133.639 45.4685 124.693 34.4968 121.956C23.5252 119.218 12.9526 123.725 10.8823 132.022C8.81207 140.32 16.0281 149.265 26.9997 152.003C37.9714 154.74 48.5439 150.233 50.6142 141.936Z" fill="black"/>
<path d="M49.6289 140.43C51.6991 132.132 44.4831 123.187 33.5115 120.449C22.5398 117.712 11.9672 122.219 9.89698 130.516C7.82672 138.813 15.0427 147.759 26.0144 150.496C36.986 153.234 47.5586 148.727 49.6289 140.43Z" fill="#fda4af" stroke="#09090B" stroke-linecap="round" stroke-linejoin="round"/>
<path d="M23.5821 132.969C23.7081 134.845 22.9871 136.427 21.9791 136.469C20.9711 136.511 20.0401 135.069 19.8791 133.193C19.7181 131.317 20.4741 129.728 21.4891 129.693C22.5041 129.658 23.4561 131.086 23.5821 132.969Z" stroke="#09090B" stroke-linecap="round" stroke-linejoin="round"/>
<path d="M37.4561 136.447C37.5821 138.33 36.8611 139.905 35.8531 139.947C34.8451 139.989 33.9141 138.547 33.7531 136.664C33.5921 134.781 34.3481 133.206 35.3631 133.164C36.3781 133.122 37.3091 134.564 37.4561 136.447Z" stroke="#09090B" stroke-linecap="round" stroke-linejoin="round"/>
<path d="M60.3525 141.312C60.2047 142.66 59.8896 143.984 59.4145 145.254C55.3965 156.111 40.8505 160.808 26.4795 156.132" stroke="#09090B" stroke-width="3" stroke-linecap="round" stroke-linejoin="round"/>
<path d="M58.0078 140.283H62.4668" stroke="#09090B" stroke-width="3" stroke-linecap="round" stroke-linejoin="round"/>
<path d="M29.6021 111.219C29.1121 113.256 27.8591 114.719 26.8021 114.453C25.7451 114.187 25.2831 112.353 25.7801 110.295C26.2771 108.237 27.5231 106.795 28.5801 107.054C29.6371 107.313 30.0991 109.175 29.6021 111.219Z" fill="#09090B" stroke="#09090B" stroke-linecap="round" stroke-linejoin="round"/>
<path d="M42.5116 114.034C43.0044 111.989 42.5477 110.125 41.4916 109.871C40.4354 109.616 39.1799 111.067 38.6871 113.112C38.1944 115.157 38.6511 117.02 39.7072 117.275C40.7633 117.529 42.0189 116.078 42.5116 114.034Z" fill="#09090B" stroke="#09090B" stroke-linecap="round" stroke-linejoin="round"/>
<path d="M61.7881 188.408L69.4881 206.678C69.7645 207.332 70.2272 207.89 70.8185 208.282C71.4099 208.674 72.1036 208.883 72.8131 208.883H86.8131C87.5161 208.882 88.2036 208.677 88.7916 208.291C89.3796 207.906 89.8426 207.358 90.1241 206.713L98.5241 187.302H98.1601" fill="#fda4af"/>
<mask id="mask3_338_57" style="mask-type:luminance" maskUnits="userSpaceOnUse" x="61" y="187" width="38" height="22">
<path d="M61.7881 188.408L69.4881 206.678C69.7645 207.332 70.2272 207.89 70.8185 208.282C71.4099 208.674 72.1036 208.883 72.8131 208.883H86.8131C87.5161 208.882 88.2036 208.677 88.7916 208.291C89.3796 207.906 89.8426 207.358 90.1241 206.713L98.5241 187.302H98.1601" fill="white"/>
</mask>
<g mask="url(#mask3_338_57)">
<path opacity="0.3" d="M78.0564 186.078C73.6184 186.078 68.4524 186.659 64.2734 185.693L71.4694 206.644C71.6408 207.252 71.9981 207.792 72.4914 208.187C72.9846 208.583 73.5892 208.814 74.2204 208.849H85.7564C86.3801 208.814 86.9777 208.587 87.4667 208.198C87.9557 207.809 88.312 207.278 88.4864 206.679L95.4514 185.308L92.6514 185.693C83.7684 186.659 83.9994 186.078 78.0564 186.078Z" fill="black"/>
</g>
<path d="M61.7881 188.408L69.4881 206.678C69.7645 207.332 70.2272 207.89 70.8185 208.282C71.4099 208.674 72.1036 208.883 72.8131 208.883H86.8131C87.5161 208.882 88.2036 208.677 88.7916 208.291C89.3796 207.906 89.8426 207.358 90.1241 206.713L98.5241 187.302H98.1601" stroke="#09090B" stroke-linecap="round" stroke-linejoin="round"/>
<path d="M68.8369 52.5666L69.8519 56.3886L85.6439 52.5666L100.421 13.8496L90.7399 10.5386L68.8369 52.5666Z" fill="white" stroke="#09090B" stroke-linecap="round" stroke-linejoin="round"/>
<path d="M73.6743 1.11646L95.5773 9.27145L84.8813 57.6624L59.1562 49.7664L73.6743 1.11646Z" fill="white" stroke="#09090B" stroke-linecap="round" stroke-linejoin="round"/>
<path d="M60.0176 46.8755L82.8446 53.5885L92.7776 10.5385L72.7786 4.11255L60.0176 46.8755Z" fill="#15C770" stroke="#09090B" stroke-linecap="round" stroke-linejoin="round"/>
<path d="M72.6877 14.7595C71.6943 14.4966 70.6561 14.4488 69.6427 14.6195L63.6787 34.6045C64.5419 35.4457 65.6038 36.0549 66.7657 36.3755C71.4417 37.6635 76.5657 33.8625 78.2037 27.8915C79.8417 21.9205 77.3567 16.0405 72.6877 14.7595Z" fill="white" stroke="#09090B" stroke-linecap="round" stroke-linejoin="round"/>
<path d="M71.8402 18.0705C71.8101 18.0569 71.7855 18.0337 71.7703 18.0045C71.7551 17.9753 71.7501 17.9418 71.7562 17.9095L72.0222 16.8735C72.0384 16.8298 72.0445 16.783 72.04 16.7367C72.0355 16.6903 72.0206 16.6456 71.9963 16.6058C71.9721 16.5661 71.9391 16.5324 71.8999 16.5072C71.8608 16.482 71.8164 16.466 71.7702 16.4605L70.6571 16.1945C70.6136 16.1768 70.5664 16.1695 70.5196 16.1734C70.4727 16.1772 70.4273 16.1919 70.3872 16.2164C70.347 16.2409 70.3132 16.2745 70.2883 16.3144C70.2635 16.3544 70.2484 16.3996 70.2442 16.4465L70.0272 17.5175C70.019 17.5495 69.9998 17.5776 69.9729 17.5968C69.9459 17.6161 69.9131 17.6251 69.8802 17.6225C69.5008 17.5836 69.1185 17.5836 68.7392 17.6225L66.7022 24.4615C68.2912 26.1135 70.7692 26.9395 70.4402 28.3255C70.2512 29.1095 69.5372 29.7255 68.2842 29.4455C68.0221 29.4104 67.7708 29.3194 67.5471 29.1785C67.3234 29.0376 67.1327 28.8502 66.9879 28.6291C66.8431 28.4079 66.7476 28.1581 66.708 27.8968C66.6684 27.6354 66.6855 27.3686 66.7582 27.1145L66.8212 26.8345C66.8562 26.6805 66.7652 26.5545 66.5482 26.5055L66.1212 26.4005L64.9102 30.4465C65.3965 30.8886 65.9649 31.2311 66.5832 31.4545C66.6146 31.4683 66.6401 31.4926 66.6555 31.5233C66.6708 31.554 66.675 31.5891 66.6672 31.6225L66.4152 32.5115C66.3958 32.5549 66.3873 32.6025 66.3904 32.6499C66.3935 32.6974 66.408 32.7434 66.4328 32.7841C66.4576 32.8247 66.4919 32.8587 66.5327 32.8831C66.5735 32.9076 66.6196 32.9218 66.6672 32.9245L67.8222 33.2045C67.8628 33.226 67.9078 33.238 67.9537 33.2395C67.9997 33.241 68.0454 33.2319 68.0873 33.213C68.1292 33.194 68.1662 33.1658 68.1954 33.1303C68.2247 33.0949 68.2455 33.0532 68.2562 33.0085L68.4452 32.1265C68.4556 32.0938 68.4761 32.0654 68.5038 32.0453C68.5315 32.0251 68.5649 32.0143 68.5992 32.0145C71.0632 32.2735 72.7362 31.0625 73.2542 28.9065C73.6602 27.1845 73.0792 25.7215 71.2802 24.3425C69.6352 23.0965 67.8992 22.4805 68.2002 21.2065C68.4102 20.3245 69.2152 19.9185 70.3002 20.1775C70.5687 20.2207 70.8247 20.3215 71.0505 20.4731C71.2763 20.6247 71.4666 20.8234 71.6083 21.0556C71.75 21.2877 71.8397 21.5478 71.8713 21.818C71.9028 22.0881 71.8755 22.3619 71.7912 22.6205L71.7422 22.8165C71.7422 22.9355 71.8122 23.0405 72.0292 23.0965L74.0802 23.5865C74.1238 23.6027 74.1706 23.6088 74.2169 23.6043C74.2633 23.5998 74.308 23.5849 74.3478 23.5606C74.3875 23.5364 74.4213 23.5034 74.4464 23.4643C74.4716 23.4251 74.4876 23.3807 74.4932 23.3345L74.6472 22.6835C75.1162 20.6325 74.1292 18.8895 71.8402 18.0705Z" fill="#09090B"/>
</svg>
