<svg width="24" height="24" viewBox="0 0 24 24" fill="none" xmlns="http://www.w3.org/2000/svg">
<path d="M13.2595 18.3478H6.42219C4.53446 18.3478 3.36035 17.0159 3.36035 15.1309V8.02841C3.36035 6.14349 4.53446 4.81152 6.42124 4.81152H17.5795C19.4606 4.81152 20.6404 6.14349 20.6404 8.02841V9.94693" stroke="#2DD4BF" stroke-width="1.5" stroke-linecap="round" stroke-linejoin="round"/>
<path d="M16.5381 15.5511L18.5892 13.5L20.6395 15.5511" stroke="#2DD4BF" stroke-width="1.5" stroke-linecap="round" stroke-linejoin="round"/>
<path d="M18.5889 13.5L18.5892 18.3477" stroke="#2DD4BF" stroke-width="1.5" stroke-linecap="round" stroke-linejoin="round"/>
<path d="M6.44434 8.17285H7.79124" stroke="#2DD4BF" stroke-width="1.5" stroke-linecap="round" stroke-linejoin="round"/>
<path fill-rule="evenodd" clip-rule="evenodd" d="M9.80273 11.5802C9.80273 10.3669 10.7863 9.38428 11.9987 9.38428C13.212 9.38428 14.1956 10.3669 14.1956 11.5802C14.1956 12.7935 13.212 13.7762 11.9987 13.7762C10.7863 13.7762 9.80273 12.7935 9.80273 11.5802Z" stroke="#2DD4BF" stroke-width="1.5" stroke-linecap="round" stroke-linejoin="round"/>
</svg>
