<svg width="40" height="40" viewBox="0 0 40 40" fill="none" xmlns="http://www.w3.org/2000/svg">
  <g id="Bank-build">
    <path id="Vector"
      d="M34.5879 33.0252L34.5879 33.0252L34.5897 33.033C34.6681 33.369 34.5902 33.7104 34.3684 33.9766L34.3683 33.9765L34.3608 33.9859C34.1522 34.2494 33.8456 34.3957 33.4891 34.3957H6.41714C6.07401 34.3957 5.75252 34.2475 5.54548 33.9859L5.5456 33.9858L5.53788 33.9766C5.3161 33.7104 5.23813 33.369 5.31657 33.033L5.31664 33.033L5.31833 33.0252L5.92511 30.2148C6.05389 29.6857 6.52447 29.3095 7.04114 29.3095H7.44114C7.97144 29.3095 8.40114 28.8794 8.40114 28.3495V18.2839C8.40114 17.7538 7.97154 17.3237 7.44114 17.3237H6.83314C6.0102 17.3237 5.34514 16.6587 5.34514 15.8358V14.9078C5.34514 14.4032 5.59459 13.9472 6.03636 13.6638L6.03754 13.663L19.1389 5.2023C19.1393 5.20203 19.1397 5.20176 19.1402 5.2015C19.6383 4.88507 20.2653 4.88616 20.7611 5.21267L20.7611 5.21269L20.7653 5.21536L33.8853 13.6634L33.8852 13.6634L33.8897 13.6662C34.3051 13.9273 34.5611 14.395 34.5611 14.9078V15.8358C34.5611 16.6587 33.8961 17.3237 33.0731 17.3237H32.4651C31.9347 17.3237 31.5051 17.7538 31.5051 18.2839V28.3495C31.5051 28.8794 31.9348 29.3095 32.4651 29.3095H32.8651C33.3818 29.3095 33.8524 29.6856 33.9811 30.2147L34.5879 33.0252ZM24.2891 28.3495C24.2891 28.8794 24.7188 29.3095 25.2491 29.3095H29.1051C29.6355 29.3095 30.0651 28.8794 30.0651 28.3495V18.2855C30.0651 17.7552 29.6353 17.3255 29.1051 17.3255H25.2491C24.7189 17.3255 24.2891 17.7552 24.2891 18.2855V28.3495ZM17.0571 28.3495C17.0571 28.8794 17.4868 29.3095 18.0171 29.3095H21.8891C22.4194 29.3095 22.8491 28.8794 22.8491 28.3495V18.2855C22.8491 17.7552 22.4193 17.3255 21.8891 17.3255H18.0171C17.4869 17.3255 17.0571 17.7552 17.0571 18.2855V28.3495ZM9.84114 28.3495C9.84114 28.8794 10.2709 29.3095 10.8011 29.3095H14.6571C15.1874 29.3095 15.6171 28.8794 15.6171 28.3495V18.2855C15.6171 17.7552 15.1873 17.3255 14.6571 17.3255H10.8011C10.271 17.3255 9.84114 17.7552 9.84114 18.2855V28.3495ZM21.6331 12.0918C21.6331 11.1665 20.886 10.4278 19.9531 10.4278C19.032 10.4278 18.2731 11.1867 18.2731 12.1078C18.2731 13.049 19.0362 13.7878 19.9531 13.7878C20.8902 13.7878 21.6331 13.0449 21.6331 12.1078V12.0918Z"
      fill="#FEFDF9" stroke="#FEFDF9" stroke-width="0.96"></path>
  </g>
</svg>