<svg width="40" height="40" viewBox="0 0 40 40" fill="none" xmlns="http://www.w3.org/2000/svg">
  <g id="Wallet">
    <g id="Vector">
      <mask id="path-1-inside-1_639_1523" fill="white">
        <path fill-rule="evenodd" clip-rule="evenodd"
          d="M25.7417 25.5635C23.225 25.5635 21.175 23.5135 21.175 20.9801V19.0135C21.175 16.4802 23.225 14.4302 25.7417 14.4302C27.7092 14.4302 31.5609 14.4411 32.9464 14.4453C33.2274 14.4461 33.4549 14.2149 33.4325 13.9349C33.0767 9.4751 29.3524 5.9635 24.8084 5.9635H13.3916C8.60831 5.9635 4.72498 9.86352 4.72498 14.6468V25.3635C4.72498 30.1468 8.60831 34.0301 13.3916 34.0301H24.8084C29.353 34.0301 33.093 30.5176 33.4344 26.0571C33.4557 25.7776 33.2284 25.5476 32.9482 25.5485C31.564 25.5525 27.71 25.5635 25.7417 25.5635Z"></path>
      </mask>
      <path fill-rule="evenodd" clip-rule="evenodd"
        d="M25.7417 25.5635C23.225 25.5635 21.175 23.5135 21.175 20.9801V19.0135C21.175 16.4802 23.225 14.4302 25.7417 14.4302C27.7092 14.4302 31.5609 14.4411 32.9464 14.4453C33.2274 14.4461 33.4549 14.2149 33.4325 13.9349C33.0767 9.4751 29.3524 5.9635 24.8084 5.9635H13.3916C8.60831 5.9635 4.72498 9.86352 4.72498 14.6468V25.3635C4.72498 30.1468 8.60831 34.0301 13.3916 34.0301H24.8084C29.353 34.0301 33.093 30.5176 33.4344 26.0571C33.4557 25.7776 33.2284 25.5476 32.9482 25.5485C31.564 25.5525 27.71 25.5635 25.7417 25.5635Z"
        fill="#FEFDF9"></path>
      <path
        d="M32.9464 14.4453L32.9434 15.4453H32.9434L32.9464 14.4453ZM33.4325 13.9349L34.4294 13.8554L34.4294 13.8553L33.4325 13.9349ZM33.4344 26.0571L34.4315 26.1334L34.4315 26.1332L33.4344 26.0571ZM32.9482 25.5485L32.9511 26.5485H32.9512L32.9482 25.5485ZM25.7417 24.5635C23.7797 24.5635 22.175 22.9636 22.175 20.9801H20.175C20.175 24.0634 22.6704 26.5635 25.7417 26.5635V24.5635ZM22.175 20.9801V19.0135H20.175V20.9801H22.175ZM22.175 19.0135C22.175 17.0301 23.7797 15.4302 25.7417 15.4302V13.4302C22.6704 13.4302 20.175 15.9303 20.175 19.0135H22.175ZM25.7417 15.4302C27.7074 15.4302 31.5574 15.4411 32.9434 15.4453L32.9494 13.4453C31.5644 13.4411 27.711 13.4302 25.7417 13.4302V15.4302ZM32.9434 15.4453C33.7713 15.4477 34.5012 14.7554 34.4294 13.8554L32.4357 14.0144C32.4086 13.6743 32.6834 13.4445 32.9493 13.4453L32.9434 15.4453ZM34.4294 13.8553C34.0326 8.88213 29.8802 4.9635 24.8084 4.9635V6.9635C28.8246 6.9635 32.1208 10.0681 32.4357 14.0144L34.4294 13.8553ZM24.8084 4.9635H13.3916V6.9635H24.8084V4.9635ZM13.3916 4.9635C8.05352 4.9635 3.72498 9.31374 3.72498 14.6468H5.72498C5.72498 10.4133 9.16309 6.9635 13.3916 6.9635V4.9635ZM3.72498 14.6468V25.3635H5.72498V14.6468H3.72498ZM3.72498 25.3635C3.72498 30.6991 8.05602 35.0301 13.3916 35.0301V33.0301C9.16059 33.0301 5.72498 29.5945 5.72498 25.3635H3.72498ZM13.3916 35.0301H24.8084V33.0301H13.3916V35.0301ZM24.8084 35.0301C29.8781 35.0301 34.0504 31.1128 34.4315 26.1334L32.4373 25.9808C32.1357 29.9225 28.828 33.0301 24.8084 33.0301V35.0301ZM34.4315 26.1332C34.5001 25.2346 33.7707 24.546 32.9452 24.5485L32.9512 26.5485C32.6861 26.5492 32.4114 26.3207 32.4373 25.981L34.4315 26.1332ZM32.9453 24.5485C31.5605 24.5525 27.7083 24.5635 25.7417 24.5635V26.5635C27.7118 26.5635 31.5676 26.5525 32.9511 26.5485L32.9453 24.5485Z"
        fill="#FEFDF9" mask="url(#path-1-inside-1_639_1523)"></path>
    </g>
    <path id="Vector_2"
      d="M25.375 19.997C25.375 20.9277 26.1368 21.6803 27.0751 21.6803C28.0012 21.6803 28.7584 20.9231 28.7584 19.997C28.7584 19.0708 28.0012 18.3136 27.0751 18.3136C26.1368 18.3136 25.375 19.0663 25.375 19.997ZM25.7417 17.4303H33.1917C34.0656 17.4303 34.7751 18.1398 34.7751 19.0136V20.9803C34.7751 21.8542 34.0656 22.5636 33.1917 22.5636H25.7417C24.8731 22.5636 24.175 21.8594 24.175 20.9803V19.0136C24.175 18.1345 24.8731 17.4303 25.7417 17.4303Z"
      fill="#FEFDF9" stroke="#FEFDF9"></path>
  </g>
</svg>