<svg width="40" height="40" viewBox="0 0 40 40" fill="none" xmlns="http://www.w3.org/2000/svg">
  <g id="savings">
    <path id="Vector"
      d="M33.05 13.3334L29.2667 9.55008C29.3834 8.85008 29.5667 8.20008 29.8 7.63342C29.9834 7.20008 30.05 6.70008 29.95 6.18342C29.7334 4.98342 28.5667 4.15008 27.3334 4.16675C24.6834 4.21675 22.3334 5.51675 20.8334 7.50008H12.5C7.43337 7.50008 3.33337 11.6001 3.33337 16.6667C3.33337 20.4167 5.61671 29.1334 6.80004 33.4001C7.20004 34.8334 8.51671 35.8334 10.0167 35.8334H13.3334C15.1667 35.8334 16.6667 34.3334 16.6667 32.5001H20C20 34.3334 21.5 35.8334 23.3334 35.8334H26.6834C28.15 35.8334 29.45 34.8667 29.8834 33.4501L31.9667 26.5167L35.5334 25.3167C36.2167 25.0834 36.6667 24.4501 36.6667 23.7334V15.0001C36.6667 14.0834 35.9167 13.3334 35 13.3334H33.05ZM20 15.8334H15C14.0834 15.8334 13.3334 15.0834 13.3334 14.1667C13.3334 13.2501 14.0834 12.5001 15 12.5001H20C20.9167 12.5001 21.6667 13.2501 21.6667 14.1667C21.6667 15.0834 20.9167 15.8334 20 15.8334ZM26.6667 19.1667C25.75 19.1667 25 18.4167 25 17.5001C25 16.5834 25.75 15.8334 26.6667 15.8334C27.5834 15.8334 28.3334 16.5834 28.3334 17.5001C28.3334 18.4167 27.5834 19.1667 26.6667 19.1667Z"
      fill="#FEFDF9"></path>
  </g>
</svg>